<?xml version="1.0" standalone="no"?>
<!DOCTYPE svg PUBLIC "-//W3C//DTD SVG 20010904//EN"
 "http://www.w3.org/TR/2001/REC-SVG-20010904/DTD/svg10.dtd">
<svg version="1.0" xmlns="http://www.w3.org/2000/svg"
 width="1024.000000pt" height="1024.000000pt" viewBox="0 0 1024.000000 1024.000000"
 preserveAspectRatio="xMidYMid meet">
<metadata>
Created by potrace 1.14, written by Peter Selinger 2001-2017
</metadata>
<g transform="translate(0.000000,1024.000000) scale(0.100000,-0.100000)"
fill="#000000" stroke="none">
<path d="M1107 9323 c-11 -3 -34 -15 -54 -28 -19 -13 -42 -27 -52 -30 -9 -3
-32 -31 -51 -62 l-35 -57 0 -4011 c1 -3831 2 -4012 19 -4055 34 -87 105 -152
186 -172 57 -13 7985 -10 8015 4 19 9 24 16 19 32 -9 29 -24 46 -40 46 -22 0
-16 17 7 23 11 3 23 15 26 26 7 27 19 27 26 0 3 -11 15 -23 26 -26 27 -7 27
-16 -1 -28 -23 -10 -38 -55 -19 -55 10 0 68 45 89 70 7 8 24 36 37 62 l25 47
0 2053 c0 1129 -5 2935 -11 4013 -11 1924 -11 1961 -31 2010 -24 60 -80 106
-158 129 -49 15 -428 16 -4029 15 -2187 -1 -3984 -3 -3994 -6z m3836 -3055 c4
-83 7 -299 7 -479 l0 -328 26 -20 c26 -21 36 -21 494 -21 481 0 520 -3 540
-40 14 -25 14 -1507 0 -1515 -5 -3 -83 -13 -172 -21 -90 -8 -197 -21 -238 -28
-41 -8 -120 -17 -175 -21 -82 -6 -103 -5 -113 7 -9 11 -12 142 -14 514 l-3
499 -535 5 -535 5 -3 752 -2 751 25 20 c27 22 49 25 290 43 83 6 177 14 210
19 33 4 90 8 126 9 l66 1 6 -152z"/>
<path d="M9673 1264 c-9 -24 216 -247 234 -232 26 21 11 45 -90 146 -100 100
-131 118 -144 86z"/>
<path d="M9605 1200 c-19 -21 -18 -21 98 -138 l117 -117 20 20 20 20 -118 118
-118 118 -19 -21z"/>
<path d="M9603 1040 c-123 -29 -310 -226 -321 -339 -4 -43 -2 -50 18 -61 56
-30 175 33 281 148 136 149 148 282 22 252z"/>
<path d="M9125 720 c-19 -21 -18 -21 98 -138 l117 -117 20 20 20 20 -118 118
-118 118 -19 -21z"/>
<path d="M9051 642 c-5 -9 -7 -29 -4 -44 3 -18 -9 -56 -41 -124 l-47 -98 29
-28 28 -29 98 47 c78 37 104 45 130 40 24 -5 37 -2 46 9 12 14 -2 31 -101 131
-62 63 -117 114 -121 114 -4 0 -12 -8 -17 -18z"/>
</g>
</svg>
